<svg width="24" height="24" viewBox="0 0 24 24" xmlns="http://www.w3.org/2000/svg">
    <path fill-rule="evenodd" clip-rule="evenodd"
        d="M12.9302 2.0225C15.3302 2.1725 17.5802 3.3725 19.2302 5.0225C21.1802 7.1225 22.2302 9.6725 22.2302 12.6725C22.2302 15.0725 21.3302 17.3225 19.8302 19.2725C18.3302 21.0725 16.2302 22.4225 13.8302 22.8725C11.4302 23.3225 9.03021 23.0225 6.93021 21.8225C4.83021 20.6225 3.18021 18.8225 2.28021 16.5725C1.38021 14.3225 1.23021 11.7725 1.98021 9.5225C2.73021 7.1225 4.08021 5.1725 6.18021 3.8225C8.13021 2.4725 10.5302 1.8725 12.9302 2.0225ZM11.8802 11.7725L15.4802 8.0225L16.5302 9.0725L12.9302 12.8225L16.5302 16.5725L15.4802 17.6225L11.8802 13.8725L8.28021 17.6225L7.23021 16.5725L10.8302 12.8225L7.23021 9.0725L8.28021 8.0225L11.8802 11.7725Z"
        fill="currentColor" />
</svg>
    