<svg width="24" height="24" viewBox="0 0 24 24" fill="none" xmlns="http://www.w3.org/2000/svg">
    <path fill-rule="evenodd" clip-rule="evenodd"
        d="M20.0111 2.58613C19.2909 1.86551 18.1444 1.80156 17.3486 2.43761L5.92996 11.5641C5.70866 11.7409 5.52743 11.9628 5.39827 12.2151L3.93855 15.0656C3.05297 16.7949 4.90214 18.6451 6.63051 17.759L9.58112 16.2464C9.70019 16.1853 9.81284 16.1125 9.91738 16.0289L21.2505 6.97081C22.1824 6.22606 22.2598 4.83607 21.4165 3.9923L20.0111 2.58613ZM18.5969 4.00112L20.0023 5.4073L8.66912 14.4654L5.71851 15.9781L7.17822 13.1276L18.5969 4.00112ZM3 19.9989C2.44772 19.9989 2 20.4469 2 20.9994C2 21.552 2.44772 22 3 22H21C21.5523 22 22 21.552 22 20.9994C22 20.4469 21.5523 19.9989 21 19.9989H3Z"
        fill="currentColor" />
</svg>