<svg width="24" height="25" viewBox="0 0 24 25" fill="none" xmlns="http://www.w3.org/2000/svg">
  <path
    d="M20.5714 12.5C20.5714 7.76612 16.7339 3.92856 12 3.92856C7.26614 3.92856 3.42857 7.76612 3.42857 12.5C3.42857 16.5198 6.19594 19.8927 9.92935 20.819V15.1193H8.16185V12.5H9.92935V11.3713C9.92935 8.4539 11.2496 7.10167 14.1139 7.10167C14.6569 7.10167 15.5939 7.20812 15.9772 7.31462V9.68904C15.7749 9.66775 15.4235 9.65708 14.9869 9.65708C13.5815 9.65708 13.0384 10.1895 13.0384 11.5737V12.5H15.8381L15.3572 15.1193H13.0384V21.0086C17.2825 20.496 20.5714 16.8823 20.5714 12.5Z"
    fill="currentColor" />
</svg>
  