<svg width="24" height="25" viewBox="0 0 24 25" fill="none" xmlns="http://www.w3.org/2000/svg">
  <path
    d="M8.42794 3.93532C7.51023 3.97862 6.88353 4.12507 6.33566 4.34035C5.76865 4.56133 5.28806 4.85785 4.80988 5.33775C4.33171 5.81765 4.03725 6.29858 3.81783 6.86645C3.60548 7.41552 3.46161 8.04273 3.42107 8.96095C3.38053 9.87917 3.37156 10.1743 3.37605 12.5165C3.38053 14.8587 3.39088 15.1523 3.43539 16.0725C3.47921 16.99 3.62514 17.6165 3.84042 18.1646C4.06174 18.7316 4.35793 19.212 4.838 19.6903C5.31807 20.1687 5.79866 20.4624 6.36792 20.6822C6.91647 20.8942 7.54386 21.0388 8.46192 21.0789C9.37997 21.1191 9.67547 21.1285 12.017 21.124C14.3585 21.1195 14.6534 21.1091 15.5733 21.0655C16.4933 21.0219 17.1165 20.8749 17.6647 20.6606C18.2317 20.4388 18.7125 20.1431 19.1905 19.6629C19.6685 19.1826 19.9628 18.7014 20.182 18.1332C20.3946 17.5846 20.5389 16.9572 20.5788 16.0399C20.619 15.1192 20.6285 14.8253 20.624 12.4834C20.6195 10.1415 20.609 9.84795 20.5653 8.92818C20.5217 8.00841 20.3756 7.38378 20.1605 6.8354C19.9388 6.26839 19.643 5.78832 19.1631 5.30963C18.6832 4.83094 18.2015 4.53683 17.6335 4.3181C17.0846 4.10575 16.4575 3.96102 15.5395 3.92135C14.6214 3.88167 14.3259 3.8715 11.9835 3.87598C9.64114 3.88047 9.34789 3.89047 8.42794 3.93532ZM8.52868 19.5273C7.68773 19.4907 7.23112 19.351 6.92682 19.2341C6.52386 19.0788 6.23682 18.8911 5.93356 18.5908C5.6303 18.2905 5.444 18.0024 5.28668 17.6003C5.16851 17.296 5.0262 16.8399 4.98687 15.999C4.94409 15.0901 4.93512 14.8172 4.93012 12.5145C4.92511 10.2118 4.93391 9.9392 4.97376 9.02995C5.00964 8.1897 5.15023 7.73258 5.26701 7.42846C5.42226 7.02498 5.60926 6.73846 5.91027 6.43537C6.21129 6.13229 6.4985 5.94564 6.90095 5.78832C7.2049 5.66964 7.66099 5.52854 8.50159 5.48852C9.4112 5.44539 9.68375 5.43677 11.9861 5.43176C14.2885 5.42676 14.5618 5.43539 15.4717 5.47541C16.312 5.51198 16.7693 5.65118 17.073 5.76866C17.4762 5.92391 17.763 6.11038 18.0661 6.41191C18.3692 6.71344 18.556 6.99962 18.7134 7.40293C18.8322 7.70601 18.9733 8.16193 19.013 9.00304C19.0563 9.91264 19.0661 10.1854 19.0703 12.4876C19.0744 14.7897 19.0663 15.0632 19.0264 15.9721C18.9897 16.813 18.8503 17.2698 18.7332 17.5744C18.5779 17.9772 18.3908 18.2644 18.0896 18.5673C17.7884 18.8702 17.5015 19.0569 17.0989 19.2142C16.7953 19.3327 16.3387 19.4742 15.4988 19.5142C14.5892 19.557 14.3166 19.5659 12.0134 19.5709C9.71014 19.5759 9.43845 19.5666 8.52885 19.5273M15.56 7.89024C15.5604 8.09496 15.6214 8.29498 15.7354 8.465C15.8495 8.63503 16.0113 8.76741 16.2006 8.84543C16.3899 8.92344 16.5981 8.94357 16.7988 8.90327C16.9995 8.86297 17.1837 8.76405 17.3282 8.61903C17.4727 8.47401 17.571 8.28939 17.6105 8.08853C17.6501 7.88767 17.6292 7.67959 17.5505 7.49061C17.4718 7.30162 17.3388 7.14022 17.1684 7.02682C16.9979 6.91342 16.7977 6.8531 16.593 6.85351C16.3185 6.85406 16.0555 6.96359 15.8618 7.158C15.6681 7.35242 15.5596 7.6158 15.56 7.89024ZM7.57146 12.5086C7.57629 14.9547 9.56282 16.9331 12.0084 16.9284C14.4539 16.9238 16.4337 14.9374 16.4291 12.4914C16.4244 10.0453 14.4374 8.06637 11.9915 8.0712C9.54557 8.07603 7.56681 10.0629 7.57146 12.5086ZM9.12501 12.5055C9.12389 11.9369 9.29141 11.3807 9.60639 10.9072C9.92138 10.4338 10.3697 10.0644 10.8946 9.84578C11.4195 9.62713 11.9975 9.56905 12.5554 9.67888C13.1133 9.78871 13.6262 10.0615 14.0291 10.4628C14.4319 10.8641 14.7068 11.3758 14.8188 11.9333C14.9309 12.4908 14.8751 13.069 14.6585 13.5948C14.4419 14.1206 14.0743 14.5703 13.6021 14.8872C13.13 15.204 12.5744 15.3737 12.0058 15.3749C11.6282 15.3757 11.2542 15.3021 10.9051 15.1583C10.5559 15.0145 10.2385 14.8034 9.97103 14.5369C9.70352 14.2705 9.49111 13.9539 9.34595 13.6054C9.20079 13.2568 9.12572 12.8831 9.12501 12.5055Z"
    fill="currentColor" />
</svg>
  