<svg width="24" height="25" viewBox="0 0 24 25" fill="none" xmlns="http://www.w3.org/2000/svg">
  <path
    d="M19.1934 14.082C19.1934 11.3101 17.4708 10.3643 15.877 10.3643C14.4035 10.3643 13.4388 11.3185 13.1623 11.8769H13.1253V10.6197H10.3789V19.6943H13.2351V14.7744C13.2351 13.4623 14.0668 12.8248 14.9133 12.8248C15.7155 12.8248 16.3372 13.2755 16.3372 14.7375V19.6943H19.1934V14.082ZM8.88117 7.71589C8.88117 6.768 8.14443 6.07556 7.23459 6.07556C6.32581 6.07556 5.58802 6.768 5.58802 7.71589C5.58802 8.66273 6.32581 9.35517 7.23459 9.35517C8.14443 9.35517 8.88117 8.66273 8.88117 7.71589ZM8.66268 10.6123H5.80651V19.687H8.66268V10.6123ZM21.9999 4.90283V21.0982C21.9999 21.872 21.3719 22.5 20.5972 22.5H4.4027C3.62796 22.5 2.99994 21.872 2.99994 21.0982V4.90283C2.99994 4.12806 3.62796 3.5 4.4027 3.5H20.5972C21.3719 3.5 21.9999 4.12806 21.9999 4.90283Z"
    fill="currentColor" />
</svg>
  