<svg
    width="42"
    height="42"
    viewBox="0 0 42 42"
    fill="none"
    xmlns="http://www.w3.org/2000/svg"
>
    <path
        fill-rule="evenodd"
        clip-rule="evenodd"
        d="M21 42C32.598 42 42 32.598 42 21C42 9.40202 32.598 0 21 0C9.40202 0 0 9.40202 0 21C0 32.598 9.40202 42 21 42ZM16.4711 12.2V15.1333C17.5303 15.4593 20.0888 16.6978 21.8488 19.0444C23.6088 21.3911 23.5599 23.7704 23.3155 24.6667L22.3377 25.4L23.3155 26.1333V32H17.6933C15.4933 32 14.0266 29.5556 14.0266 28.8222V23.2C14.8089 23.9822 15.9822 24.9926 16.4711 25.4V27.3556C16.4711 28.5778 16.9599 30.0444 17.9377 30.0444H21.1155V27.1111C20.6266 26.7037 19.4044 25.95 18.4266 25.4C14.7694 23.3429 14.3183 20.4308 14.0753 18.8622C14.0584 18.7532 14.0425 18.6508 14.0266 18.5556C13.8311 17.3822 14.76 16.9259 15.2489 16.8444L14.0266 16.1111V10H25.2711C27.7155 10 29.6711 12.6889 29.6711 15.6222C29.6711 17.8222 26.7377 20.2667 24.7822 20.2667H23.8044L22.3377 18.0667H25.2711C26.4933 17.5778 27.2266 16.3556 27.2266 15.1333C27.2266 13.9111 26.4933 12.2 24.7822 12.2H16.4711ZM16.4707 18.5567L17.204 18.0679C17.9374 18.3938 19.5507 19.2901 20.1374 20.2678C20.724 21.2456 21.0337 22.9567 21.1151 23.6901L20.1374 24.179C19.73 23.853 18.6707 22.9567 17.6929 21.979C16.7151 21.0012 16.4707 19.2901 16.4707 18.5567Z"
        fill="#282725"
        fill-opacity="0.9"></path>
</svg>