<svg width="24" height="24" viewBox="0 0 24 24" fill="none" xmlns="http://www.w3.org/2000/svg">
  <path fill-rule="evenodd" clip-rule="evenodd"
    d="M12 23C14.7848 23 17.4555 21.8938 19.4246 19.9246C21.3938 17.9555 22.5 15.2848 22.5 12.5C22.5 9.71523 21.3938 7.04451 19.4246 5.07538C17.4555 3.10625 14.7848 2 12 2C9.21523 2 6.54451 3.10625 4.57538 5.07538C2.60625 7.04451 1.5 9.71523 1.5 12.5C1.5 15.2848 2.60625 17.9555 4.57538 19.9246C6.54451 21.8938 9.21523 23 12 23ZM10.47 16.805H9.405L6 13.4L7.065 12.335L9.945 15.215L16.245 8.9L17.31 9.965L10.47 16.805Z"
    fill="currentColor" />
</svg>
  