<svg width="16" height="16" viewBox="0 0 16 16" fill="none" xmlns="http://www.w3.org/2000/svg">
    <g opacity="0.75">
        <path fill-rule="evenodd" clip-rule="evenodd"
            d="M10.1561 2.55555L3.72603 2.55556C3.58985 2.55556 3.47945 2.67164 3.47945 2.81482V13.1852C3.47945 13.3284 3.58985 13.4444 3.72603 13.4444H5.28767V10.4197C5.28767 9.41745 6.06044 8.60493 7.0137 8.60493H8.9863C9.93956 8.60493 10.7123 9.41745 10.7123 10.4197V13.4444H12.274C12.4102 13.4444 12.5205 13.3284 12.5205 13.1852V5.59835C12.5205 5.53947 12.5015 5.48236 12.4665 5.43639L10.3486 2.65286C10.3018 2.59136 10.231 2.55555 10.1561 2.55555ZM9.23288 13.4444V10.4197C9.23288 10.2766 9.12248 10.1605 8.9863 10.1605H7.0137C6.87752 10.1605 6.76712 10.2766 6.76712 10.4197V13.4444H9.23288ZM3.72603 1.00001L10.1561 1C10.6804 0.999999 11.1763 1.25061 11.5039 1.68111L13.6218 4.46464C13.8666 4.78643 14 5.18625 14 5.59835V13.1852C14 14.1875 13.2272 15 12.274 15H3.72603C2.77277 15 2 14.1875 2 13.1852V2.81482C2 1.81253 2.77277 1.00001 3.72603 1.00001Z"
            fill="#282725" />
    </g>
</svg>