<svg width="24" height="24" viewBox="0 0 24 24" fill="none" xmlns="http://www.w3.org/2000/svg">
    <path fill-rule="evenodd" clip-rule="evenodd"
        d="M8.00002 4.02405C8.55231 4.02405 9.00002 4.47176 9.00002 5.02405C9.00002 5.57633 8.55231 6.02405 8.00002 6.02405H5.98057L5.98057 18.0507H8.00002C8.55231 18.0507 9.00002 18.4984 9.00002 19.0507C9.00002 19.603 8.55231 20.0507 8.00002 20.0507H5.98057C4.876 20.0507 3.98057 19.1553 3.98057 18.0507V6.02405C3.98057 4.91948 4.876 4.02405 5.98057 4.02405H8.00002ZM13.514 15.293L11.2211 13.0001H19.0704C19.6227 13.0001 20.0704 12.5523 20.0704 12.0001C20.0704 11.4478 19.6227 11.0001 19.0704 11.0001L11.2211 11.0001L13.514 8.70717C13.9045 8.31664 13.9045 7.68348 13.514 7.29295C13.1234 6.90243 12.4903 6.90243 12.0997 7.29295L8.80684 10.5858C8.02579 11.3669 8.0258 12.6332 8.80684 13.4143L12.0997 16.7072C12.4903 17.0977 13.1234 17.0977 13.514 16.7072C13.9045 16.3166 13.9045 15.6835 13.514 15.293Z"
        fill="currentColor" />
</svg>