<svg width="24" height="24" viewBox="0 0 24 24" fill="none" xmlns="http://www.w3.org/2000/svg">
    <g opacity="0.75">
        <path fill-rule="evenodd" clip-rule="evenodd"
            d="M16 4.02405C15.4477 4.02405 15 4.47176 15 5.02405C15 5.57633 15.4477 6.02405 16 6.02405H18.0194L18.0194 18.0507H16C15.4477 18.0507 15 18.4984 15 19.0507C15 19.603 15.4477 20.0507 16 20.0507H18.0194C19.124 20.0507 20.0194 19.1553 20.0194 18.0507V6.02405C20.0194 4.91948 19.124 4.02405 18.0194 4.02405H16ZM10.486 15.293L12.7789 13.0001H4.92957C4.37728 13.0001 3.92957 12.5523 3.92957 12.0001C3.92957 11.4478 4.37728 11.0001 4.92957 11.0001L12.7789 11.0001L10.486 8.70717C10.0955 8.31664 10.0955 7.68348 10.486 7.29295C10.8766 6.90243 11.5097 6.90243 11.9003 7.29295L15.1932 10.5858C15.9742 11.3669 15.9742 12.6332 15.1932 13.4143L11.9003 16.7072C11.5097 17.0977 10.8766 17.0977 10.486 16.7072C10.0955 16.3166 10.0955 15.6835 10.486 15.293Z"
            fill="#282725" />
    </g>
</svg>